<svg width="145" height="53" viewBox="0 0 145 53" fill="none" xmlns="http://www.w3.org/2000/svg">
<g clip-path="url(#clip0_1_258182)">
<path d="M11.5 33.4V40.6C11.5 41.5 11.7 42.2 12.1 42.7C12.5 43.2 13.1 43.5 13.7 43.5H16.6V45.2H13.8C12.7 45.2 11.7 44.8 10.9 44C10.1 43.2 9.7 42.1 9.7 40.6V33.4C9.7 32.1 9.5 30.8 9 29.7C8.6 28.6 8 27.7 7.3 27C6.6 26.3 5.7 25.7 4.8 25.3C3.9 24.9 2.9 24.7 1.8 24.7H0V23H1.9C3.2 23 4.4 23.2 5.5 23.7C6.7 24.2 7.7 24.8 8.6 25.7C9.5 26.6 10.2 27.7 10.7 29C11.3 30.4 11.5 31.8 11.5 33.4ZM8.1 33.4V40.6C8.1 42.6 8.7 44.1 9.8 45.2C10.9 46.3 12.3 46.9 13.9 46.9H16.7V48.6H13.9C11.8 48.6 10 47.9 8.6 46.4C7.1 45 6.4 43 6.4 40.6V33.4C6.4 31.7 6 30.4 5.2 29.5C4.4 28.6 3.3 28.1 2 28.1H0V26.4H1.9C3.6 26.4 5.1 27 6.3 28.3C7.5 29.5 8.1 31.2 8.1 33.4ZM4.7 33.4V40.6C4.7 43.5 5.6 45.9 7.4 47.6C9.2 49.4 11.4 50.3 13.9 50.3H16.8V52H14C12.1 52 10.3 51.5 8.6 50.6C6.9 49.7 5.6 48.4 4.6 46.6C3.6 44.8 3.1 42.8 3.1 40.5V33.3C3.1 32.6 3 32.1 2.8 31.9C2.6 31.7 2.3 31.5 1.9 31.5H0V29.8H1.8C2.6 29.8 3.3 30.1 3.8 30.7C4.4 31.3 4.7 32.2 4.7 33.4ZM4.6 22.3L2.9 22.1C2.9 21.8 3 21.5 3 21.2V12C3 9.7 3.5 7.7 4.5 5.9C5.5 4.1 6.9 2.8 8.5 1.9C10.1 1 11.9 0.5 13.9 0.5H16.7V2.2H13.8C11.3 2.2 9.1 3.1 7.3 4.9C5.5 6.7 4.6 9 4.6 11.9V21.1C4.7 21.6 4.6 22 4.6 22.3ZM7.7 23.7L6.1 22.9C6.3 22.1 6.3 21.5 6.3 21.2V12C6.3 9.6 7 7.6 8.5 6.2C10 4.8 11.7 4 13.8 4H16.6V5.7H13.8C12.2 5.7 10.8 6.3 9.7 7.4C8.6 8.5 8.1 10.1 8.1 12V21.2C8.1 22 8 22.8 7.7 23.7ZM10.5 26.1L9.2 24.8C9.6 23.7 9.8 22.5 9.8 21.2V12C9.8 10.6 10.2 9.5 11 8.6C11.8 7.9 12.7 7.5 13.9 7.5H16.7V9.2H13.8C13.1 9.2 12.6 9.5 12.2 10C11.8 10.5 11.6 11.2 11.6 12.1V21.3C11.5 23 11.2 24.6 10.5 26.1Z" fill="black"/>
<path d="M58.4998 14.2L56.9998 15.1C55.1998 12.4 52.8998 10.4 49.9998 8.8C47.0998 7.3 43.9998 6.5 40.6998 6.5C37.9998 6.5 35.4998 7 32.9998 8.1C30.5998 9.1 28.4998 10.5 26.6998 12.3C24.8998 14.1 23.4998 16.2 22.4998 18.6C21.4998 21 20.8998 23.6 20.8998 26.3C20.8998 29 21.3998 31.5 22.4998 34C23.4998 36.4 24.8998 38.5 26.6998 40.3C28.4998 42.1 30.5998 43.5 32.9998 44.5C35.3998 45.5 37.9998 46.1 40.6998 46.1C43.9998 46.1 47.0998 45.3 49.9998 43.8C52.8998 42.2 55.1998 40.1 56.9998 37.5L58.3998 38.5C56.3998 41.4 53.8998 43.6 50.7998 45.3C47.6998 47 44.2998 47.8 40.6998 47.8C37.7998 47.8 34.9998 47.2 32.3998 46.1C29.7998 45 27.4998 43.4 25.5998 41.5C23.6998 39.6 22.1998 37.3 20.9998 34.7C19.8998 32.1 19.2998 29.3 19.2998 26.4C19.2998 23.5 19.8998 20.7 20.9998 18.1C22.0998 15.5 23.6998 13.2 25.5998 11.3C27.4998 9.4 29.7998 7.9 32.3998 6.7C34.9998 5.5 37.7998 5 40.6998 5C44.2998 5 47.6998 5.8 50.7998 7.5C53.9998 9 56.4998 11.3 58.4998 14.2ZM55.6998 16.2L54.2998 17.1C52.7998 14.9 50.8998 13.2 48.4998 11.9C46.0998 10.6 43.5998 10 40.7998 10C38.5998 10 36.4998 10.4 34.4998 11.3C32.4998 12.2 30.7998 13.3 29.2998 14.8C27.7998 16.3 26.6998 18 25.7998 20C24.8998 22 24.4998 24.1 24.4998 26.3C24.4998 28.5 24.8998 30.6 25.7998 32.6C26.6998 34.6 27.7998 36.4 29.2998 37.8C30.7998 39.3 32.4998 40.4 34.4998 41.3C36.4998 42.2 38.5998 42.6 40.7998 42.6C43.5998 42.6 46.0998 42 48.4998 40.7C50.8998 39.4 52.7998 37.7 54.2998 35.5L55.6998 36.5C53.9998 38.9 51.8998 40.8 49.2998 42.2C46.6998 43.6 43.8998 44.3 40.7998 44.3C37.4998 44.3 34.4998 43.5 31.7998 41.9C28.9998 40.3 26.8998 38.1 25.1998 35.3C23.5998 32.5 22.7998 29.5 22.7998 26.3C22.7998 23.1 23.5998 20 25.1998 17.3C26.7998 14.5 28.9998 12.4 31.7998 10.7C34.5998 9.1 37.5998 8.3 40.7998 8.3C43.7998 8.3 46.6998 9 49.2998 10.4C51.8998 11.8 53.9998 13.7 55.6998 16.2ZM52.7998 18.1L51.3998 19C50.1998 17.3 48.6998 15.9 46.7998 14.9C44.8998 13.9 42.8998 13.4 40.6998 13.4C38.3998 13.4 36.1998 14 34.1998 15.1C32.1998 16.3 30.6998 17.8 29.4998 19.8C28.2998 21.8 27.7998 23.9 27.7998 26.3C27.7998 28.6 28.3998 30.8 29.4998 32.8C30.5998 34.8 32.1998 36.3 34.1998 37.5C36.1998 38.7 38.2998 39.2 40.6998 39.2C42.8998 39.2 44.8998 38.7 46.7998 37.7C48.6998 36.7 50.1998 35.3 51.3998 33.6L52.7998 34.6C51.4998 36.6 49.6998 38.1 47.5998 39.3C45.4998 40.4 43.1998 41 40.6998 41C38.0998 41 35.5998 40.3 33.3998 39C31.1998 37.7 29.3998 35.9 28.0998 33.7C26.7998 31.5 26.0998 29 26.0998 26.4C26.0998 23.8 26.7998 21.3 28.0998 19.1C29.3998 16.9 31.1998 15.1 33.3998 13.8C35.5998 12.5 38.0998 11.8 40.6998 11.8C43.1998 11.8 45.4998 12.4 47.5998 13.5C49.6998 14.6 51.4998 16.1 52.7998 18.1ZM49.9998 20L48.5998 20.9C47.6998 19.6 46.5998 18.6 45.2998 17.9C43.9998 17.2 42.3998 16.8 40.7998 16.8C38.1998 16.8 35.9998 17.7 34.0998 19.6C32.2998 21.4 31.2998 23.7 31.2998 26.3C31.2998 28.9 32.1998 31.1 34.0998 33C35.8998 34.8 38.1998 35.8 40.7998 35.8C42.3998 35.8 43.8998 35.4 45.2998 34.7C46.6998 34 47.7998 32.9 48.5998 31.7L49.9998 32.7C48.9998 34.2 47.6998 35.4 45.9998 36.2C44.3998 37.1 42.5998 37.5 40.7998 37.5C39.2998 37.5 37.8998 37.2 36.4998 36.6C35.0998 36 33.8998 35.2 32.8998 34.2C31.8998 33.2 31.0998 32 30.4998 30.6C29.8998 29.2 29.5998 27.8 29.5998 26.3C29.5998 24.8 29.8998 23.4 30.4998 22C31.0998 20.6 31.8998 19.4 32.8998 18.4C33.8998 17.4 35.0998 16.6 36.4998 16C37.8998 15.4 39.2998 15.1 40.7998 15.1C42.6998 15.1 44.3998 15.5 46.0998 16.4C47.5998 17.3 48.9998 18.5 49.9998 20Z" fill="black"/>
<path d="M77.6996 22.0002H74.7996C73.5996 22.0002 72.6996 21.7002 72.1996 21.1002C71.6996 20.5002 71.3996 19.6002 71.3996 18.6002C71.3996 16.3002 73.0996 15.2002 76.4996 15.2002C79.6996 15.2002 82.0996 15.7002 83.6996 16.6002L82.2996 17.6002C81.1996 17.1002 79.1996 16.8002 76.3996 16.8002C74.9996 16.8002 74.0996 17.0002 73.5996 17.3002C73.1996 17.6002 72.9996 18.0002 72.9996 18.5002C72.9996 19.0002 73.0996 19.5002 73.3996 19.8002C73.6996 20.1002 74.0996 20.3002 74.7996 20.3002H77.7996C79.8996 20.3002 81.8996 20.7002 83.5996 21.4002C85.2996 22.1002 86.6996 23.1002 87.7996 24.4002C88.8996 25.7002 89.7996 27.1002 90.2996 28.8002C90.8996 30.4002 91.1996 32.2002 91.1996 34.1002C91.1996 35.6002 90.9996 37.1002 90.5996 38.4002C90.1996 39.8002 89.4996 41.0002 88.6996 42.2002C87.7996 43.3002 86.7996 44.3002 85.5996 45.2002C84.3996 46.0002 82.8996 46.7002 81.2996 47.2002C79.5996 47.7002 77.7996 47.9002 75.8996 47.9002C72.7996 47.9002 69.9996 47.4002 67.2996 46.5002C64.5996 45.6002 62.3996 44.3002 60.5996 42.6002L61.9996 41.6002C63.5996 43.1002 65.5996 44.2002 68.0996 45.0002C70.4996 45.8002 73.0996 46.2002 75.8996 46.2002C78.0996 46.2002 79.9996 45.9002 81.7996 45.3002C83.5996 44.7002 84.9996 43.8002 86.0996 42.7002C87.1996 41.6002 88.0996 40.3002 88.6996 38.9002C89.2996 37.5002 89.5996 35.9002 89.5996 34.2002C89.5996 32.0002 89.1996 30.0002 88.2996 28.2002C87.3996 26.4002 86.0996 25.0002 84.1996 23.9002C82.2996 22.8002 80.1996 22.0002 77.6996 22.0002ZM74.7996 30.5002H77.3996C78.5996 30.5002 79.4996 30.8002 79.9996 31.5002C80.4996 32.1002 80.7996 33.0002 80.7996 34.0002C80.7996 36.3002 79.0996 37.4002 75.6996 37.4002C72.4996 37.4002 70.0996 36.9002 68.3996 36.0002L69.7996 35.0002C70.8996 35.5002 72.8996 35.8002 75.6996 35.8002C77.0996 35.8002 77.9996 35.6002 78.4996 35.3002C78.9996 35.0002 79.1996 34.6002 79.1996 34.0002C79.1996 33.5002 79.0996 33.1002 78.7996 32.7002C78.4996 32.4002 78.0996 32.2002 77.3996 32.2002H74.7996C72.5996 32.2002 70.5996 31.8002 68.8996 31.1002C67.0996 30.4002 65.6996 29.4002 64.4996 28.1002C63.3996 26.8002 62.4996 25.4002 61.8996 23.7002C61.2996 22.2002 60.9996 20.5002 60.9996 18.5002C60.9996 17.0002 61.1996 15.5002 61.5996 14.2002C61.9996 12.8002 62.6996 11.6002 63.4996 10.4002C64.3996 9.3002 65.3996 8.3002 66.5996 7.4002C67.7996 6.5002 69.2996 5.9002 70.8996 5.4002C72.4996 4.9002 74.3996 4.7002 76.2996 4.7002C79.3996 4.7002 82.1996 5.2002 84.8996 6.1002C87.5996 7.0002 89.7996 8.30019 91.5996 10.0002L90.1996 11.0002C88.5996 9.5002 86.5996 8.4002 84.0996 7.6002C81.6996 6.8002 79.0996 6.4002 76.2996 6.4002C74.0996 6.4002 72.1996 6.7002 70.3996 7.3002C68.5996 7.9002 67.1996 8.8002 66.0996 9.9002C64.9996 11.0002 64.0996 12.3002 63.4996 13.7002C62.8996 15.1002 62.5996 16.7002 62.5996 18.4002C62.5996 20.6002 63.0996 22.7002 63.9996 24.4002C64.8996 26.2002 66.2996 27.6002 68.0996 28.7002C70.0996 30.0002 72.2996 30.5002 74.7996 30.5002ZM74.7996 23.7002H77.4996C80.6996 23.7002 83.1996 24.7002 85.0996 26.7002C86.8996 28.7002 87.7996 31.1002 87.7996 34.0002C87.7996 37.0002 86.6996 39.4002 84.5996 41.4002C82.4996 43.4002 79.4996 44.3002 75.6996 44.3002C73.1996 44.3002 70.7996 44.0002 68.5996 43.3002C66.3996 42.6002 64.5996 41.6002 63.0996 40.3002L64.3996 39.2002C65.6996 40.3002 67.2996 41.1002 69.2996 41.7002C71.2996 42.3002 73.3996 42.6002 75.6996 42.6002C78.9996 42.6002 81.5996 41.8002 83.3996 40.2002C85.1996 38.6002 86.0996 36.5002 86.0996 34.0002C86.0996 31.5002 85.3996 29.5002 83.8996 27.9002C82.3996 26.3002 80.2996 25.5002 77.4996 25.5002H74.7996C72.4996 25.5002 70.6996 24.9002 69.5996 23.6002C68.4996 22.3002 67.8996 20.7002 67.8996 18.6002C67.8996 16.5002 68.5996 14.9002 70.0996 13.6002C71.4996 12.3002 73.6996 11.7002 76.5996 11.7002C78.5996 11.7002 80.4996 11.9002 82.1996 12.4002C83.8996 12.9002 85.3996 13.5002 86.4996 14.4002L84.9996 15.5002C82.9996 14.1002 80.1996 13.5002 76.4996 13.5002C74.0996 13.5002 72.3996 14.0002 71.2996 14.9002C70.1996 15.8002 69.5996 17.1002 69.5996 18.6002C69.5996 20.2002 69.9996 21.4002 70.7996 22.3002C71.5996 23.2002 72.8996 23.7002 74.7996 23.7002ZM74.7996 27.1002H77.3996C79.6996 27.1002 81.4996 27.7002 82.5996 29.0002C83.7996 30.3002 84.2996 31.9002 84.2996 33.9002C84.2996 35.9002 83.5996 37.6002 82.0996 38.9002C80.6996 40.2002 78.4996 40.8002 75.5996 40.8002C73.5996 40.8002 71.6996 40.6002 69.9996 40.1002C68.2996 39.6002 66.7996 39.0002 65.6996 38.1002L67.0996 37.1002C69.0996 38.5002 71.8996 39.1002 75.6996 39.1002C78.0996 39.1002 79.7996 38.6002 80.8996 37.7002C81.9996 36.8002 82.5996 35.5002 82.5996 34.0002C82.5996 32.5002 82.1996 31.2002 81.3996 30.3002C80.5996 29.4002 79.1996 28.9002 77.3996 28.9002H74.7996C71.4996 28.9002 68.9996 27.9002 67.1996 26.0002C65.3996 24.1002 64.4996 21.6002 64.4996 18.6002C64.4996 15.6002 65.5996 13.2002 67.6996 11.2002C69.7996 9.3002 72.7996 8.3002 76.5996 8.3002C79.0996 8.3002 81.4996 8.6002 83.6996 9.3002C85.8996 10.0002 87.6996 11.0002 89.1996 12.3002L87.8996 13.4002C86.5996 12.3002 84.9996 11.5002 82.9996 10.9002C80.9996 10.3002 78.8996 10.0002 76.5996 10.0002C73.2996 10.0002 70.6996 10.8002 68.8996 12.4002C67.0996 14.0002 66.1996 16.1002 66.1996 18.6002C66.1996 21.1002 66.8996 23.1002 68.3996 24.8002C69.8996 26.3002 71.9996 27.1002 74.7996 27.1002Z" fill="black"/>
<path d="M110.9 21.9996H108C106.8 21.9996 105.9 21.6996 105.4 21.0996C104.9 20.4996 104.6 19.5996 104.6 18.5996C104.6 16.2996 106.3 15.1996 109.7 15.1996C112.9 15.1996 115.3 15.6996 116.9 16.5996L115.5 17.5996C114.4 17.0996 112.4 16.7996 109.6 16.7996C108.2 16.7996 107.3 16.9996 106.8 17.2996C106.3 17.5996 106.1 17.9996 106.1 18.5996C106.1 19.1996 106.2 19.5996 106.5 19.8996C106.8 20.1996 107.2 20.3996 107.9 20.3996H110.9C113 20.3996 115 20.7996 116.7 21.4996C118.4 22.1996 119.8 23.1996 120.9 24.4996C122 25.7996 122.9 27.1996 123.4 28.8996C124 30.4996 124.3 32.2996 124.3 34.1996C124.3 35.6996 124.1 37.1996 123.7 38.4996C123.3 39.8996 122.6 41.0996 121.8 42.2996C120.9 43.3996 119.9 44.3996 118.7 45.2996C117.5 46.0996 116 46.7996 114.4 47.2996C112.7 47.7996 110.9 47.9996 109 47.9996C105.9 47.9996 103.1 47.4996 100.4 46.5996C97.7002 45.6996 95.5002 44.3996 93.7002 42.6996L95.1002 41.6996C96.7002 43.1996 98.7002 44.2996 101.2 45.0996C103.6 45.8996 106.2 46.2996 109 46.2996C111.2 46.2996 113.1 45.9996 114.9 45.3996C116.7 44.7996 118.1 43.8996 119.2 42.7996C120.3 41.6996 121.2 40.3996 121.8 38.9996C122.4 37.5996 122.7 35.9996 122.7 34.2996C122.7 32.0996 122.3 30.0996 121.4 28.2996C120.5 26.4996 119.2 25.0996 117.3 23.9996C115.4 22.8996 113.4 21.9996 110.9 21.9996ZM108.1 30.4996H110.7C111.9 30.4996 112.8 30.7996 113.3 31.4996C113.8 32.0996 114.1 32.9996 114.1 33.9996C114.1 36.2996 112.4 37.3996 109 37.3996C105.8 37.3996 103.4 36.8996 101.7 35.9996L103.1 34.9996C104.2 35.4996 106.2 35.7996 109 35.7996C110.4 35.7996 111.3 35.5996 111.8 35.2996C112.3 34.9996 112.5 34.5996 112.5 33.9996C112.5 33.4996 112.4 33.0996 112.1 32.6996C111.8 32.3996 111.4 32.1996 110.7 32.1996H108.1C105.9 32.1996 103.9 31.7996 102.2 31.0996C100.4 30.3996 99.0002 29.3996 97.8002 28.0996C96.7002 26.7996 95.8002 25.3996 95.2002 23.6996C94.6002 21.9996 94.3002 20.2996 94.3002 18.3996C94.3002 16.8996 94.5002 15.3996 94.9002 14.0996C95.3002 12.6996 96.0002 11.4996 96.8002 10.2996C97.7002 9.19961 98.7002 8.19961 99.9002 7.29961C101.1 6.49961 102.6 5.79961 104.2 5.29961C105.8 4.79961 107.7 4.59961 109.6 4.59961C112.7 4.59961 115.5 5.09961 118.2 5.99961C120.9 6.89961 123.1 8.19961 124.9 9.89961L123.5 10.8996C121.9 9.39961 119.9 8.29961 117.4 7.49961C115 6.69961 112.4 6.29961 109.6 6.29961C107.4 6.29961 105.5 6.59961 103.7 7.19961C101.9 7.79961 100.5 8.69961 99.4002 9.79961C98.3002 10.8996 97.4002 12.1996 96.8002 13.5996C96.2002 14.9996 95.9002 16.5996 95.9002 18.2996C95.9002 20.4996 96.4002 22.5996 97.3002 24.2996C98.2002 26.0996 99.6002 27.4996 101.4 28.5996C103.3 29.9996 105.5 30.4996 108.1 30.4996ZM108.1 23.6996H110.8C114 23.6996 116.5 24.6996 118.4 26.6996C120.3 28.6996 121.1 31.0996 121.1 33.9996C121.1 36.9996 120 39.3996 117.9 41.3996C115.8 43.3996 112.8 44.2996 109 44.2996C106.5 44.2996 104.1 43.9996 101.9 43.2996C99.7002 42.5996 97.9002 41.5996 96.4002 40.2996L97.7002 39.1996C99.0002 40.2996 100.6 41.0996 102.6 41.6996C104.6 42.2996 106.7 42.5996 109 42.5996C112.3 42.5996 114.9 41.7996 116.7 40.1996C118.5 38.5996 119.4 36.4996 119.4 33.9996C119.4 31.4996 118.7 29.4996 117.2 27.8996C115.7 26.2996 113.6 25.4996 110.8 25.4996H108.1C105.8 25.4996 104 24.8996 102.9 23.5996C101.8 22.2996 101.2 20.6996 101.2 18.5996C101.2 16.4996 101.9 14.8996 103.4 13.5996C104.8 12.2996 107 11.6996 109.9 11.6996C111.9 11.6996 113.8 11.8996 115.5 12.3996C117.2 12.8996 118.7 13.4996 119.8 14.3996L118.4 15.3996C116.4 13.9996 113.6 13.3996 109.9 13.3996C107.5 13.3996 105.8 13.8996 104.7 14.7996C103.6 15.6996 103 16.9996 103 18.4996C103 20.0996 103.4 21.2996 104.2 22.1996C105 23.0996 106.2 23.6996 108.1 23.6996ZM108.1 27.0996H110.7C113 27.0996 114.8 27.6996 115.9 28.9996C117.1 30.2996 117.6 31.8996 117.6 33.8996C117.6 35.8996 116.9 37.5996 115.4 38.8996C114 40.1996 111.8 40.7996 108.9 40.7996C106.9 40.7996 105 40.5996 103.3 40.0996C101.6 39.5996 100.1 38.9996 99.0002 38.0996L100.4 37.0996C102.4 38.4996 105.2 39.0996 109 39.0996C111.4 39.0996 113.1 38.5996 114.2 37.6996C115.3 36.7996 115.9 35.4996 115.9 33.9996C115.9 32.4996 115.5 31.1996 114.7 30.2996C113.9 29.3996 112.5 28.8996 110.7 28.8996H108.1C104.8 28.8996 102.3 27.8996 100.5 25.9996C98.7002 24.0996 97.8002 21.5996 97.8002 18.5996C97.8002 15.5996 98.9002 13.1996 101 11.1996C103.1 9.19961 106.1 8.29961 109.9 8.29961C112.4 8.29961 114.8 8.59961 117 9.29961C119.2 9.99961 121 10.9996 122.5 12.2996L121.2 13.3996C119.9 12.2996 118.3 11.4996 116.3 10.8996C114.3 10.2996 112.2 9.99961 109.9 9.99961C106.6 9.99961 104 10.7996 102.2 12.3996C100.4 13.9996 99.5002 16.0996 99.5002 18.5996C99.5002 21.0996 100.2 23.0996 101.7 24.7996C103.1 26.2996 105.3 27.0996 108.1 27.0996Z" fill="black"/>
<path d="M139.6 19.2V12C139.6 9.1 138.7 6.7 136.9 5C135.1 3.3 132.9 2.3 130.4 2.3H127.5V0.5H130.3C132.2 0.5 134 1 135.7 1.9C137.3 2.8 138.7 4.1 139.7 5.9C140.7 7.7 141.2 9.7 141.2 12V19.2C141.2 19.9 141.3 20.4 141.5 20.6C141.7 20.8 142 21 142.4 21H144.2V22.7H142.4C141.6 22.7 140.9 22.4 140.4 21.8C139.9 21.2 139.6 20.3 139.6 19.2ZM136.2 19.2V12C136.2 10 135.6 8.5 134.5 7.4C133.4 6.3 132 5.7 130.4 5.7H127.6V3.9H130.4C132.5 3.9 134.3 4.6 135.7 6.1C137.2 7.5 137.9 9.5 137.9 11.9V19.1C137.9 20.8 138.3 22.1 139.1 23C139.9 23.9 141 24.4 142.3 24.4H144.3V26.1H142.4C140.7 26.1 139.2 25.5 138 24.2C136.8 23 136.2 21.3 136.2 19.2ZM132.8 19.2V12C132.8 11.1 132.6 10.4 132.2 9.9C131.8 9.4 131.2 9.1 130.6 9.1H127.7V7.4H130.5C131.6 7.4 132.6 7.8 133.4 8.6C134.2 9.4 134.6 10.5 134.6 12V19.2C134.6 20.5 134.8 21.8 135.3 22.9C135.7 24 136.3 24.9 137.1 25.6C137.8 26.3 138.7 26.9 139.6 27.3C140.5 27.7 141.5 27.9 142.6 27.9H144.5V29.5H142.6C141.3 29.5 140.1 29.3 139 28.8C137.8 28.3 136.8 27.6 135.9 26.8C135 25.9 134.3 24.8 133.8 23.5C133.1 22.2 132.8 20.7 132.8 19.2ZM133.8 26.5L135.1 27.8C134.7 28.9 134.5 30.1 134.5 31.4V40.5C134.5 41.9 134.1 43 133.3 43.9C132.5 44.7 131.6 45.1 130.4 45.1H127.6V43.4H130.5C131.2 43.4 131.7 43.1 132.1 42.6C132.5 42.1 132.7 41.4 132.7 40.5V31.3C132.8 29.6 133.1 28 133.8 26.5ZM136.6 28.9L138.2 29.7C138 30.5 138 31.1 138 31.4V40.5C138 42.9 137.3 44.9 135.8 46.3C134.3 47.7 132.6 48.5 130.5 48.5H127.7V46.8H130.5C132.1 46.8 133.5 46.2 134.6 45.1C135.7 44 136.3 42.4 136.3 40.5V31.3C136.2 30.6 136.3 29.7 136.6 28.9ZM139.7 30.2L141.4 30.4C141.3 30.7 141.3 31 141.3 31.3V40.5C141.3 42.8 140.8 44.8 139.8 46.6C138.8 48.4 137.4 49.7 135.8 50.6C134.2 51.5 132.4 52 130.4 52H127.6V50.3H130.5C133 50.3 135.2 49.4 137 47.6C138.8 45.8 139.7 43.5 139.7 40.6V31.4C139.6 30.9 139.7 30.5 139.7 30.2Z" fill="black"/>
</g>
<defs>
<clipPath id="clip0_1_258182">
<rect width="145" height="52" fill="white" transform="translate(0 0.5)"/>
</clipPath>
</defs>
</svg>
