<svg width="220" height="53" viewBox="0 0 220 53" fill="none" xmlns="http://www.w3.org/2000/svg">
<g clip-path="url(#clip0_1_258164)">
<path opacity="0.05" d="M28.7501 52.0803C42.3529 52.0803 53.3801 50.567 53.3801 48.7003C53.3801 46.8336 42.3529 45.3203 28.7501 45.3203C15.1473 45.3203 4.12012 46.8336 4.12012 48.7003C4.12012 50.567 15.1473 52.0803 28.7501 52.0803Z" fill="black"/>
<path d="M195.45 16.1505C195.436 13.7071 196.244 11.3299 197.745 9.40128C199.245 7.47264 201.35 6.10459 203.722 5.51713C206.094 4.92967 208.594 5.15692 210.821 6.16236C213.048 7.16779 214.872 8.89297 216 11.0605L212 12.3605C211.206 11.182 210.062 10.2828 208.729 9.78994C207.396 9.2971 205.942 9.23554 204.572 9.61396C203.203 9.99237 201.986 10.7916 201.095 11.8988C200.205 13.006 199.684 14.3651 199.608 15.7841C199.531 17.2031 199.902 18.6103 200.669 19.8069C201.436 21.0034 202.559 21.9288 203.88 22.4523C205.201 22.9758 206.653 23.071 208.032 22.7243C209.41 22.3777 210.644 21.6068 211.56 20.5205L209.18 20.9105L206.29 18.0205L212.51 17.0205L218.74 16.0205L217.74 22.2405L216.74 28.4605L213.77 25.5005L214.05 23.7905C212.529 25.3155 210.59 26.3552 208.478 26.7779C206.365 27.2007 204.175 26.9875 202.184 26.1654C200.193 25.3433 198.491 23.9492 197.292 22.1594C196.093 20.3696 195.453 18.2646 195.45 16.1105V16.1505ZM69.6004 19.3905C69.5493 20.5621 69.7935 21.7278 70.3104 22.7805C70.7863 23.7079 71.471 24.5124 72.3104 25.1305C73.1881 25.7681 74.179 26.233 75.2304 26.5005C76.3457 26.7999 77.4956 26.9512 78.6504 26.9505C79.9382 26.9747 81.2224 26.8061 82.4604 26.4505C83.4653 26.1667 84.4059 25.6913 85.2304 25.0505C85.9563 24.4699 86.5352 23.7265 86.9204 22.8805C87.3019 22.0283 87.4963 21.1042 87.4904 20.1705C87.5327 19.1406 87.2606 18.1221 86.7104 17.2505C86.2546 16.5176 85.6478 15.8903 84.9304 15.4105C84.2839 14.9685 83.5718 14.631 82.8204 14.4105C82.2819 14.2322 81.7345 14.082 81.1804 13.9605L77.9304 13.1305C77.2714 12.972 76.626 12.7613 76.0004 12.5005C75.6338 12.3537 75.3153 12.1078 75.0804 11.7905C74.91 11.4855 74.8269 11.1395 74.8404 10.7905C74.8256 10.3923 74.9301 9.99886 75.1404 9.66048C75.337 9.3684 75.5883 9.11712 75.8804 8.92048C76.1877 8.72511 76.5258 8.58311 76.8804 8.50048C77.2519 8.42143 77.6306 8.38121 78.0104 8.38048C78.5531 8.3631 79.0961 8.40332 79.6304 8.50048C80.095 8.5873 80.5393 8.76028 80.9404 9.01048C81.3235 9.25553 81.6314 9.60158 81.8304 10.0105C82.0774 10.4706 82.2207 10.9791 82.2504 11.5005H86.7704C86.8061 10.4135 86.5616 9.33565 86.0604 8.37048C85.6204 7.51566 84.9785 6.78109 84.1904 6.23048C83.3632 5.6592 82.4325 5.25497 81.4504 5.04048C80.411 4.7775 79.3426 4.64647 78.2704 4.65048C77.3039 4.65216 76.342 4.78333 75.4104 5.04048C74.4933 5.28226 73.6264 5.6852 72.8504 6.23048C72.0986 6.75805 71.4679 7.43988 71.0004 8.23048C70.5269 9.09687 70.2922 10.0736 70.3204 11.0605C70.2972 11.9251 70.4824 12.7825 70.8604 13.5605C71.2231 14.2228 71.7204 14.8019 72.3204 15.2605C72.9304 15.7296 73.6038 16.11 74.3204 16.3905C75.0795 16.674 75.8541 16.9144 76.6404 17.1105C77.4104 17.3305 78.1804 17.5305 78.9304 17.7005C79.6109 17.8636 80.2792 18.0741 80.9304 18.3305C81.4613 18.5295 81.9474 18.832 82.3604 19.2205C82.5491 19.4002 82.6975 19.6179 82.7958 19.8592C82.8941 20.1006 82.9399 20.3601 82.9304 20.6205C82.9467 21.1019 82.7986 21.5745 82.5104 21.9605C82.2385 22.296 81.8974 22.5689 81.5104 22.7605C81.0863 22.9642 80.6349 23.1057 80.1704 23.1805C79.726 23.2382 79.2785 23.2683 78.8304 23.2705C78.2162 23.2903 77.6018 23.2366 77.0004 23.1105C76.4605 22.9669 75.9472 22.7373 75.4804 22.4305C75.0598 22.104 74.718 21.687 74.4804 21.2105C74.2062 20.6475 74.0724 20.0264 74.0904 19.4005L69.6004 19.3905ZM121.48 10.3905L124.16 18.1905H118.66L121.48 10.3905ZM111.16 26.1905V5.20048H104.58L99.8204 19.8105L94.8204 5.20048H88.2804V26.4405H92.6504L92.7104 11.5005L97.9204 26.4105H101.52L106.79 11.3505V26.4405H115.79L117.46 21.7105H125.4L127 26.4405H131.85L123.89 5.20048H119.1L111.16 26.1905ZM130.36 19.4005C130.312 20.573 130.56 21.7387 131.08 22.7905C131.557 23.7173 132.242 24.5216 133.08 25.1405C133.959 25.7743 134.95 26.2358 136 26.5005C137.116 26.8 138.266 26.9513 139.42 26.9505C140.708 26.9735 141.992 26.805 143.23 26.4505C144.235 26.1667 145.176 25.6913 146 25.0505C146.731 24.4718 147.313 23.7281 147.7 22.8805C148.08 22.028 148.271 21.1036 148.26 20.1705C148.307 19.1415 148.038 18.1227 147.49 17.2505C147.031 16.5169 146.421 15.8897 145.7 15.4105C145.054 14.9683 144.342 14.6308 143.59 14.4105C143.052 14.2315 142.505 14.0813 141.95 13.9605L138.71 13.1305C138.047 12.9622 137.399 12.7415 136.77 12.4705C136.404 12.3232 136.086 12.0775 135.85 11.7605C135.68 11.4555 135.597 11.1095 135.61 10.7605C135.596 10.3623 135.7 9.96886 135.91 9.63048C136.106 9.33775 136.358 9.08632 136.65 8.89048C136.957 8.69477 137.296 8.55274 137.65 8.47048C138.022 8.39143 138.401 8.35121 138.78 8.35048C139.311 8.34585 139.84 8.39612 140.36 8.50048C140.825 8.5873 141.269 8.76028 141.67 9.01048C142.053 9.25632 142.361 9.60215 142.56 10.0105C142.813 10.4697 142.963 10.9779 143 11.5005H147.52C147.553 10.4126 147.305 9.33456 146.8 8.37048C146.361 7.51498 145.719 6.78018 144.93 6.23048C144.103 5.65875 143.173 5.25448 142.19 5.04048C141.146 4.79003 140.074 4.67243 139 4.69048C138.034 4.69216 137.072 4.82333 136.14 5.08048C135.223 5.32226 134.356 5.7252 133.58 6.27048C132.832 6.79844 132.204 7.48033 131.74 8.27048C131.267 9.13687 131.032 10.1136 131.06 11.1005C131.036 11.9651 131.222 12.8228 131.6 13.6005C131.964 14.2625 132.461 14.8415 133.06 15.3005C133.671 15.7684 134.344 16.1487 135.06 16.4305C135.82 16.7133 136.594 16.9537 137.38 17.1505C138.15 17.3705 138.92 17.5705 139.67 17.7405C140.351 17.9033 141.019 18.1138 141.67 18.3705C142.202 18.569 142.688 18.8716 143.1 19.2605C143.287 19.4414 143.433 19.6596 143.529 19.9008C143.626 20.1421 143.671 20.4009 143.66 20.6605C143.675 21.1417 143.527 21.6138 143.24 22.0005C142.969 22.336 142.627 22.6089 142.24 22.8005C141.816 23.004 141.365 23.1454 140.9 23.2205C140.456 23.2782 140.008 23.3083 139.56 23.3105C138.961 23.3101 138.364 23.2396 137.78 23.1005C137.24 22.9573 136.727 22.7276 136.26 22.4205C135.841 22.093 135.499 21.6763 135.26 21.2005C134.987 20.6373 134.853 20.0164 134.87 19.3905L130.36 19.4005ZM149.04 26.4005H153.71V17.2805H162.31V26.4405H167V5.20048H162.33V13.3505H153.73V5.20048H149L149.04 26.4005ZM169.11 26.4005H173.78V5.20048H169.11V26.4005ZM175.92 26.4005H180.29L180.35 12.1805L189.19 26.4005H193.86V5.20048H189.48L189.43 19.5005L180.57 5.20048H175.93L175.92 26.4005Z" fill="#E96033"/>
<path d="M36.5702 30.61C34.432 29.018 32.0741 27.7447 29.5702 26.83C27.6857 26.0685 25.8887 25.1062 24.2102 23.96C20.2102 21.1733 18.2102 17.7167 18.2102 13.59C18.1104 11.1046 18.8854 8.66293 20.4002 6.69C20.667 6.35904 20.9542 6.04509 21.2602 5.75L12.7102 7.75C11.5169 8.02616 10.4821 8.76486 9.83331 9.80371C9.18449 10.8426 8.97475 12.0966 9.25019 13.29L16.3302 43.88C16.6065 45.0711 17.3436 46.1042 18.3802 46.7527C19.4168 47.4013 20.6682 47.6125 21.8602 47.34L25.3602 46.5L25.0902 46.43C22.7298 45.7042 20.4562 44.7217 18.3102 43.5L22.0002 35.34C24.9365 37.731 28.6136 39.025 32.4002 39C36.4002 39 38.4002 37.57 38.4002 34.73C38.4196 33.9506 38.2654 33.1766 37.9489 32.464C37.6325 31.7515 37.1615 31.1182 36.5702 30.61Z" fill="#E96033"/>
<path d="M55.9108 34.7199L48.8308 4.12988C48.5545 2.93876 47.8173 1.90573 46.7808 1.25717C45.7442 0.60861 44.4928 0.397422 43.3008 0.669885L38.1508 1.85988C38.7441 1.95322 39.3308 2.06322 39.9108 2.18988C42.2191 2.70386 44.4534 3.50686 46.5608 4.57988L43.5608 12.5799C41.3208 10.6599 38.1908 9.69988 34.1908 9.69988C30.6041 9.69988 28.8074 11.1266 28.8008 13.9799C28.84 14.5837 29.0207 15.1698 29.3281 15.6909C29.6356 16.212 30.0613 16.6535 30.5708 16.9799C32.9429 18.4843 35.4794 19.7122 38.1308 20.6399C40.432 21.4848 42.5877 22.6824 44.5208 24.1899C45.2599 24.7799 45.9308 25.4507 46.5208 26.1899C48.2459 28.4367 49.1462 31.2082 49.0708 34.0399C49.1533 36.7736 48.2877 39.4516 46.6208 41.6199L52.4508 40.2699C53.0434 40.1344 53.6033 39.8831 54.0983 39.5304C54.5934 39.1777 55.0138 38.7305 55.3354 38.2147C55.657 37.6989 55.8734 37.1245 55.9721 36.5248C56.0709 35.925 56.05 35.3116 55.9108 34.7199Z" fill="#E96033"/>
<path d="M72.5 33.5H74.22L78.46 44.44L82.68 33.5H84.4V45.96H83.23V35.18L79 45.96H77.9L73.7 35.18V45.96H72.5V33.5Z" fill="#E96033"/>
<path d="M93.8502 33.5H95.1502L100 45.96H98.7102L97.2202 42.08H91.6402L90.1602 45.96H88.9102L93.8502 33.5ZM92.0002 41.07H96.8202L94.4501 34.67L92.0002 41.07Z" fill="#E96033"/>
<path d="M115 45.9605H114.16L114 43.6905C113.626 44.4862 113.022 45.152 112.267 45.6027C111.511 46.0534 110.639 46.2685 109.76 46.2205C105.9 46.2205 103.98 43.1305 103.98 39.7205C103.98 36.3105 105.9 33.2205 109.76 33.2205C110.98 33.1326 112.187 33.5113 113.138 34.28C114.088 35.0486 114.711 36.1498 114.88 37.3605H113.71C113.54 36.4501 113.047 35.632 112.321 35.0568C111.595 34.4816 110.686 34.1882 109.76 34.2305C106.52 34.2305 105.14 36.9905 105.14 39.7205C105.14 42.4505 106.51 45.2105 109.76 45.2105C112.47 45.2105 114.05 43.2705 114 40.6305H109.83V39.6305H115V45.9605Z" fill="#E96033"/>
<path d="M124.25 33.5H125.55L130.36 45.97H129.11L127.62 42.09H122L120.52 45.97H119.27L124.25 33.5ZM122.4 41.08H127.22L124.85 34.68L122.4 41.08Z" fill="#E96033"/>
<path d="M134.31 33.5H143.13V34.5L135.06 44.91H143.3V45.91H133.76V44.91L141.83 34.5H134.31V33.5Z" fill="#E96033"/>
<path d="M148.28 33.5H149.45V45.96H148.28V33.5Z" fill="#E96033"/>
<path d="M155.42 33.5H156.72L163.86 44.05V33.5H165.03V45.96H163.73L156.59 35.41V45.96H155.42V33.5Z" fill="#E96033"/>
<path d="M171 33.5H179.46V34.5H172.16V39.01H179V40.01H172.17V44.94H179.55V45.94H171V33.5Z" fill="#E96033"/>
</g>
<defs>
<clipPath id="clip0_1_258164">
<rect width="220" height="52" fill="white" transform="translate(0 0.5)"/>
</clipPath>
</defs>
</svg>
